<svg xmlns="http://www.w3.org/2000/svg" viewBox="0 0 24 24" fill="none" shape-rendering="crispEdges">
  <rect fill="#1c1710" x="9" y="0" width="6" height="2"/>
  <rect fill="#1c1710" x="5" y="1" width="14" height="2"/>
  <rect fill="#1c1710" x="1" y="2" width="22" height="4"/>
  <rect fill="#8b3a2a" x="10" y="1" width="4" height="1"/>
  <rect fill="#8b3a2a" x="6" y="2" width="12" height="1"/>
  <rect fill="#8b3a2a" x="2" y="3" width="20" height="2"/>
  <rect fill="#6b4423" x="2" y="5" width="20" height="1"/>
  <rect fill="#1c1710" x="3" y="6" width="4" height="5"/>
  <rect fill="#6b4423" x="4" y="6" width="2" height="4"/>
  <rect fill="#1c1710" x="17" y="6" width="4" height="5"/>
  <rect fill="#6b4423" x="18" y="6" width="2" height="4"/>
  <rect fill="#1c1710" x="11" y="6" width="2" height="4"/>
  <rect fill="#1c1710" x="2" y="10" width="20" height="13"/>
  <rect fill="#cfc6b0" x="3" y="11" width="18" height="11"/>
  <rect fill="#1c1710" x="6" y="10" width="12" height="5"/>
  <rect fill="#6b4423" x="7" y="11" width="10" height="3"/>
  <rect fill="#3d7ea6" x="7" y="12" width="10" height="2"/>
  <rect fill="#cfc6b0" x="8" y="12" width="3" height="1"/>
  <rect fill="#1c1710" x="3" y="15" width="18" height="1"/>
  <rect fill="#1c1710" x="3" y="19" width="18" height="1"/>
  <rect fill="#1c1710" x="9" y="16" width="1" height="3"/>
  <rect fill="#1c1710" x="16" y="16" width="1" height="3"/>
  <rect fill="#1c1710" x="6" y="20" width="1" height="2"/>
  <rect fill="#1c1710" x="13" y="20" width="1" height="2"/>
  <rect fill="#8a5a32" x="4" y="16" width="4" height="2"/>
  <rect fill="#8a5a32" x="17" y="20" width="3" height="2"/>
</svg>
