<svg xmlns="http://www.w3.org/2000/svg" viewBox="0 0 24 24" fill="none" shape-rendering="crispEdges">
  <rect fill="#1c1710" x="9" y="6" width="7" height="1"/>
  <rect fill="#1c1710" x="8" y="7" width="1" height="1"/>
  <rect fill="#a79681" x="9" y="7" width="4" height="1"/>
  <rect fill="#463e34" x="13" y="7" width="1" height="3"/>
  <rect fill="#897861" x="14" y="7" width="2" height="1"/>
  <rect fill="#1c1710" x="16" y="7" width="2" height="1"/>
  <rect fill="#1c1710" x="7" y="8" width="1" height="1"/>
  <rect fill="#a79681" x="8" y="8" width="5" height="1"/>
  <rect fill="#897861" x="14" y="8" width="3" height="1"/>
  <rect fill="#1c1710" x="17" y="8" width="1" height="1"/>
  <rect fill="#1c1710" x="6" y="9" width="1" height="1"/>
  <rect fill="#a79681" x="7" y="9" width="2" height="1"/>
  <rect fill="#897861" x="9" y="9" width="4" height="1"/>
  <rect fill="#685b4b" x="14" y="9" width="2" height="1"/>
  <rect fill="#897861" x="16" y="9" width="2" height="1"/>
  <rect fill="#1c1710" x="18" y="9" width="1" height="2"/>
  <rect fill="#1c1710" x="5" y="10" width="1" height="1"/>
  <rect fill="#a79681" x="6" y="10" width="2" height="1"/>
  <rect fill="#897861" x="8" y="10" width="4" height="1"/>
  <rect fill="#463e34" x="12" y="10" width="1" height="3"/>
  <rect fill="#685b4b" x="13" y="10" width="4" height="1"/>
  <rect fill="#897861" x="17" y="10" width="1" height="1"/>
  <rect fill="#1c1710" x="4" y="11" width="1" height="2"/>
  <rect fill="#a79681" x="5" y="11" width="2" height="1"/>
  <rect fill="#897861" x="7" y="11" width="5" height="1"/>
  <rect fill="#685b4b" x="13" y="11" width="5" height="2"/>
  <rect fill="#897861" x="18" y="11" width="1" height="1"/>
  <rect fill="#1c1710" x="19" y="11" width="2" height="1"/>
  <rect fill="#a79681" x="5" y="12" width="1" height="1"/>
  <rect fill="#897861" x="6" y="12" width="6" height="1"/>
  <rect fill="#897861" x="18" y="12" width="2" height="1"/>
  <rect fill="#1c1710" x="20" y="12" width="1" height="4"/>
  <rect fill="#1c1710" x="3" y="13" width="1" height="4"/>
  <rect fill="#a79681" x="4" y="13" width="1" height="2"/>
  <rect fill="#897861" x="5" y="13" width="8" height="1"/>
  <rect fill="#463e34" x="13" y="13" width="1" height="1"/>
  <rect fill="#685b4b" x="14" y="13" width="5" height="1"/>
  <rect fill="#897861" x="19" y="13" width="1" height="1"/>
  <rect fill="#897861" x="5" y="14" width="9" height="1"/>
  <rect fill="#463e34" x="14" y="14" width="1" height="2"/>
  <rect fill="#685b4b" x="15" y="14" width="5" height="1"/>
  <rect fill="#897861" x="4" y="15" width="3" height="1"/>
  <rect fill="#463e34" x="7" y="15" width="1" height="2"/>
  <rect fill="#685b4b" x="8" y="15" width="2" height="2"/>
  <rect fill="#897861" x="10" y="15" width="4" height="1"/>
  <rect fill="#685b4b" x="15" y="15" width="1" height="1"/>
  <rect fill="#8b3a2a" x="16" y="15" width="1" height="1"/>
  <rect fill="#685b4b" x="17" y="15" width="2" height="1"/>
  <rect fill="#463e34" x="19" y="15" width="1" height="1"/>
  <rect fill="#685b4b" x="4" y="16" width="1" height="1"/>
  <rect fill="#897861" x="5" y="16" width="2" height="1"/>
  <rect fill="#897861" x="10" y="16" width="5" height="1"/>
  <rect fill="#463e34" x="15" y="16" width="1" height="2"/>
  <rect fill="#685b4b" x="16" y="16" width="3" height="1"/>
  <rect fill="#1c1710" x="19" y="16" width="1" height="2"/>
  <rect fill="#1c1710" x="4" y="17" width="1" height="2"/>
  <rect fill="#897861" x="5" y="17" width="3" height="1"/>
  <rect fill="#463e34" x="8" y="17" width="1" height="1"/>
  <rect fill="#685b4b" x="9" y="17" width="2" height="1"/>
  <rect fill="#897861" x="11" y="17" width="4" height="1"/>
  <rect fill="#685b4b" x="16" y="17" width="2" height="1"/>
  <rect fill="#463e34" x="18" y="17" width="1" height="1"/>
  <rect fill="#685b4b" x="5" y="18" width="11" height="1"/>
  <rect fill="#463e34" x="16" y="18" width="2" height="1"/>
  <rect fill="#1c1710" x="18" y="18" width="1" height="1"/>
  <rect fill="#1c1710" x="5" y="19" width="13" height="1"/>
</svg>
