<svg xmlns="http://www.w3.org/2000/svg" viewBox="0 0 24 48" fill="none" shape-rendering="crispEdges">
  <g id="trunk">
    <rect fill="#1c1710" x="6" y="43" width="12" height="4"/>
    <rect fill="#6b4423" x="7" y="44" width="10" height="2"/>
    <rect fill="#8a5a32" x="8" y="44" width="4" height="1"/>
    <rect fill="#1c1710" x="9" y="34" width="7" height="14"/>
    <rect fill="#1c1710" x="6" y="43" width="12" height="5"/>
    <rect fill="#6b4423" x="10" y="35" width="5" height="12"/>
    <rect fill="#8a5a32" x="10" y="35" width="2" height="11"/>
    <rect fill="#6b4423" x="7" y="44" width="10" height="3"/>
    <rect fill="#1c1710" x="12" y="36" width="1" height="8"/>
    <rect fill="#1c1710" x="13" y="40" width="1" height="6"/>
    <rect fill="#1c1710" x="10" y="39" width="3" height="3"/>
    <rect fill="#6b4423" x="11" y="40" width="1" height="1"/>
    <rect fill="#1c1710" x="8" y="32" width="9" height="4"/>
    <rect fill="#8a5a32" x="10" y="33" width="5" height="2"/>
    <rect fill="#6b4423" x="11" y="33" width="3" height="1"/>
  </g>
  <g id="grow">
    <rect fill="#1c1710" x="10" y="33" width="4" height="12"/>
    <rect fill="#6b4423" x="11" y="34" width="2" height="10"/>
    <rect fill="#8a5a32" x="11" y="34" width="1" height="9"/>
    <rect fill="#1c1710" x="12" y="37" width="1" height="5"/>
    <rect fill="#1c1710" x="8" y="25" width="8" height="13"/>
    <rect fill="#1c1710" x="6" y="28" width="12" height="7"/>
    <rect fill="#3a6232" x="9" y="26" width="6" height="11"/>
    <rect fill="#3a6232" x="7" y="29" width="10" height="5"/>
    <rect fill="#4a7c3f" x="10" y="28" width="4" height="7"/>
    <rect fill="#4a7c3f" x="8" y="30" width="8" height="3"/>
    <rect fill="#cfc6b0" x="9" y="30" width="2" height="2"/>
    <rect fill="#cfc6b0" x="13" y="31" width="1" height="2"/>
    <rect fill="#cfc6b0" x="11" y="27" width="2" height="1"/>
    <rect fill="#1c1710" x="6" y="43" width="12" height="4"/>
    <rect fill="#6b4423" x="7" y="44" width="10" height="2"/>
    <rect fill="#8a5a32" x="8" y="44" width="4" height="1"/>
  </g>
  <g id="unripe">
    <rect fill="#1c1710" x="9" y="22" width="7" height="26"/>
    <rect fill="#1c1710" x="6" y="43" width="12" height="5"/>
    <rect fill="#6b4423" x="10" y="23" width="5" height="24"/>
    <rect fill="#8a5a32" x="10" y="23" width="2" height="22"/>
    <rect fill="#6b4423" x="7" y="44" width="10" height="3"/>
    <rect fill="#1c1710" x="12" y="28" width="1" height="12"/>
    <rect fill="#1c1710" x="13" y="36" width="1" height="8"/>
    <rect fill="#1c1710" x="10" y="33" width="3" height="3"/>
    <rect fill="#6b4423" x="11" y="34" width="1" height="1"/>
    <rect fill="#1c1710" x="7" y="2" width="10" height="24"/>
    <rect fill="#1c1710" x="5" y="5" width="14" height="18"/>
    <rect fill="#1c1710" x="3" y="8" width="18" height="11"/>
    <rect fill="#3a6232" x="8" y="3" width="8" height="22"/>
    <rect fill="#3a6232" x="6" y="6" width="12" height="16"/>
    <rect fill="#3a6232" x="4" y="9" width="16" height="9"/>
    <rect fill="#4a7c3f" x="9" y="7" width="6" height="12"/>
    <rect fill="#4a7c3f" x="6" y="11" width="12" height="5"/>
    <rect fill="#cfc6b0" x="7" y="12" width="2" height="2"/>
    <rect fill="#cfc6b0" x="13" y="9" width="2" height="2"/>
    <rect fill="#cfc6b0" x="10" y="15" width="2" height="2"/>
    <rect fill="#cfc6b0" x="15" y="13" width="2" height="2"/>
    <rect fill="#cfc6b0" x="5" y="14" width="1" height="2"/>
    <rect fill="#cfc6b0" x="17" y="15" width="1" height="2"/>
    <rect fill="#cfc6b0" x="11" y="5" width="2" height="1"/>
  </g>
  <g id="unripe-variant">
    <rect fill="#1c1710" x="9" y="22" width="7" height="26"/>
    <rect fill="#1c1710" x="6" y="43" width="12" height="5"/>
    <rect fill="#6b4423" x="10" y="23" width="5" height="24"/>
    <rect fill="#8a5a32" x="10" y="23" width="2" height="22"/>
    <rect fill="#6b4423" x="7" y="44" width="10" height="3"/>
    <rect fill="#1c1710" x="12" y="28" width="1" height="12"/>
    <rect fill="#1c1710" x="13" y="36" width="1" height="8"/>
    <rect fill="#1c1710" x="10" y="33" width="3" height="3"/>
    <rect fill="#6b4423" x="11" y="34" width="1" height="1"/>
    <rect fill="#1c1710" x="7" y="2" width="10" height="24"/>
    <rect fill="#1c1710" x="5" y="5" width="14" height="18"/>
    <rect fill="#1c1710" x="3" y="8" width="18" height="11"/>
    <rect fill="#3a6232" x="8" y="3" width="8" height="22"/>
    <rect fill="#3a6232" x="6" y="6" width="12" height="16"/>
    <rect fill="#3a6232" x="4" y="9" width="16" height="9"/>
    <rect fill="#4a7c3f" x="9" y="7" width="6" height="12"/>
    <rect fill="#4a7c3f" x="6" y="11" width="12" height="5"/>
    <rect fill="#cfc6b0" x="7" y="12" width="2" height="2"/>
    <rect fill="#cfc6b0" x="13" y="9" width="2" height="2"/>
    <rect fill="#cfc6b0" x="10" y="15" width="2" height="2"/>
    <rect fill="#cfc6b0" x="15" y="13" width="2" height="2"/>
    <rect fill="#cfc6b0" x="5" y="14" width="1" height="2"/>
    <rect fill="#cfc6b0" x="17" y="15" width="1" height="2"/>
    <rect fill="#cfc6b0" x="11" y="5" width="2" height="1"/>
  </g>
  <g id="unripe-variant-2">
    <rect fill="#1c1710" x="9" y="22" width="7" height="26"/>
    <rect fill="#1c1710" x="6" y="43" width="12" height="5"/>
    <rect fill="#6b4423" x="10" y="23" width="5" height="24"/>
    <rect fill="#8a5a32" x="10" y="23" width="2" height="22"/>
    <rect fill="#6b4423" x="7" y="44" width="10" height="3"/>
    <rect fill="#1c1710" x="12" y="28" width="1" height="12"/>
    <rect fill="#1c1710" x="13" y="36" width="1" height="8"/>
    <rect fill="#1c1710" x="10" y="33" width="3" height="3"/>
    <rect fill="#6b4423" x="11" y="34" width="1" height="1"/>
    <rect fill="#1c1710" x="7" y="2" width="10" height="24"/>
    <rect fill="#1c1710" x="5" y="5" width="14" height="18"/>
    <rect fill="#1c1710" x="3" y="8" width="18" height="11"/>
    <rect fill="#3a6232" x="8" y="3" width="8" height="22"/>
    <rect fill="#3a6232" x="6" y="6" width="12" height="16"/>
    <rect fill="#3a6232" x="4" y="9" width="16" height="9"/>
    <rect fill="#4a7c3f" x="9" y="7" width="6" height="12"/>
    <rect fill="#4a7c3f" x="6" y="11" width="12" height="5"/>
    <rect fill="#cfc6b0" x="7" y="12" width="2" height="2"/>
    <rect fill="#cfc6b0" x="13" y="9" width="2" height="2"/>
    <rect fill="#cfc6b0" x="10" y="15" width="2" height="2"/>
    <rect fill="#cfc6b0" x="15" y="13" width="2" height="2"/>
    <rect fill="#cfc6b0" x="5" y="14" width="1" height="2"/>
    <rect fill="#cfc6b0" x="17" y="15" width="1" height="2"/>
    <rect fill="#cfc6b0" x="11" y="5" width="2" height="1"/>
  </g>
  <g id="unripe-heirloom">
    <rect fill="#1c1710" x="9" y="22" width="7" height="26"/>
    <rect fill="#1c1710" x="6" y="43" width="12" height="5"/>
    <rect fill="#6b4423" x="10" y="23" width="5" height="24"/>
    <rect fill="#8a5a32" x="10" y="23" width="2" height="22"/>
    <rect fill="#6b4423" x="7" y="44" width="10" height="3"/>
    <rect fill="#1c1710" x="12" y="28" width="1" height="12"/>
    <rect fill="#1c1710" x="13" y="36" width="1" height="8"/>
    <rect fill="#1c1710" x="10" y="33" width="3" height="3"/>
    <rect fill="#6b4423" x="11" y="34" width="1" height="1"/>
    <rect fill="#1c1710" x="7" y="2" width="10" height="24"/>
    <rect fill="#1c1710" x="5" y="5" width="14" height="18"/>
    <rect fill="#1c1710" x="3" y="8" width="18" height="11"/>
    <rect fill="#3a6232" x="8" y="3" width="8" height="22"/>
    <rect fill="#3a6232" x="6" y="6" width="12" height="16"/>
    <rect fill="#3a6232" x="4" y="9" width="16" height="9"/>
    <rect fill="#4a7c3f" x="9" y="7" width="6" height="12"/>
    <rect fill="#4a7c3f" x="6" y="11" width="12" height="5"/>
    <rect fill="#cfc6b0" x="7" y="12" width="2" height="2"/>
    <rect fill="#cfc6b0" x="13" y="9" width="2" height="2"/>
    <rect fill="#cfc6b0" x="10" y="15" width="2" height="2"/>
    <rect fill="#cfc6b0" x="15" y="13" width="2" height="2"/>
    <rect fill="#cfc6b0" x="5" y="14" width="1" height="2"/>
    <rect fill="#cfc6b0" x="17" y="15" width="1" height="2"/>
    <rect fill="#cfc6b0" x="11" y="5" width="2" height="1"/>
  </g>
  <g id="ripe">
    <rect fill="#1c1710" x="9" y="22" width="7" height="26"/>
    <rect fill="#1c1710" x="6" y="43" width="12" height="5"/>
    <rect fill="#6b4423" x="10" y="23" width="5" height="24"/>
    <rect fill="#8a5a32" x="10" y="23" width="2" height="22"/>
    <rect fill="#6b4423" x="7" y="44" width="10" height="3"/>
    <rect fill="#1c1710" x="12" y="28" width="1" height="12"/>
    <rect fill="#1c1710" x="13" y="36" width="1" height="8"/>
    <rect fill="#1c1710" x="10" y="33" width="3" height="3"/>
    <rect fill="#6b4423" x="11" y="34" width="1" height="1"/>
    <rect fill="#1c1710" x="7" y="2" width="10" height="24"/>
    <rect fill="#1c1710" x="5" y="5" width="14" height="18"/>
    <rect fill="#1c1710" x="3" y="8" width="18" height="11"/>
    <rect fill="#3a6232" x="8" y="3" width="8" height="22"/>
    <rect fill="#3a6232" x="6" y="6" width="12" height="16"/>
    <rect fill="#3a6232" x="4" y="9" width="16" height="9"/>
    <rect fill="#4a7c3f" x="9" y="7" width="6" height="12"/>
    <rect fill="#4a7c3f" x="6" y="11" width="12" height="5"/>
    <rect fill="#cfc6b0" x="7" y="12" width="2" height="2"/>
    <rect fill="#cfc6b0" x="13" y="9" width="2" height="2"/>
    <rect fill="#cfc6b0" x="10" y="15" width="2" height="2"/>
    <rect fill="#cfc6b0" x="15" y="13" width="2" height="2"/>
    <rect fill="#cfc6b0" x="5" y="14" width="1" height="2"/>
    <rect fill="#cfc6b0" x="17" y="15" width="1" height="2"/>
    <rect fill="#cfc6b0" x="11" y="5" width="2" height="1"/>
    <rect fill="#1c1710" x="9" y="4" width="4" height="4"/>
    <rect fill="#6b4423" x="9" y="4" width="3" height="3"/>
    <rect fill="#1c1710" x="5" y="10" width="4" height="4"/>
    <rect fill="#6b4423" x="5" y="10" width="3" height="3"/>
    <rect fill="#1c1710" x="14" y="9" width="4" height="4"/>
    <rect fill="#6b4423" x="14" y="9" width="3" height="3"/>
    <rect fill="#1c1710" x="16" y="13" width="4" height="4"/>
    <rect fill="#6b4423" x="16" y="13" width="3" height="3"/>
    <rect fill="#1c1710" x="11" y="12" width="4" height="4"/>
    <rect fill="#6b4423" x="11" y="12" width="3" height="3"/>
    <rect fill="#1c1710" x="7" y="16" width="4" height="4"/>
    <rect fill="#6b4423" x="7" y="16" width="3" height="3"/>
    <rect fill="#1c1710" x="12" y="19" width="4" height="4"/>
    <rect fill="#6b4423" x="12" y="19" width="3" height="3"/>
  </g>
  <g id="ripe-variant">
    <rect fill="#1c1710" x="9" y="22" width="7" height="26"/>
    <rect fill="#1c1710" x="6" y="43" width="12" height="5"/>
    <rect fill="#6b4423" x="10" y="23" width="5" height="24"/>
    <rect fill="#8a5a32" x="10" y="23" width="2" height="22"/>
    <rect fill="#6b4423" x="7" y="44" width="10" height="3"/>
    <rect fill="#1c1710" x="12" y="28" width="1" height="12"/>
    <rect fill="#1c1710" x="13" y="36" width="1" height="8"/>
    <rect fill="#1c1710" x="10" y="33" width="3" height="3"/>
    <rect fill="#6b4423" x="11" y="34" width="1" height="1"/>
    <rect fill="#1c1710" x="7" y="2" width="10" height="24"/>
    <rect fill="#1c1710" x="5" y="5" width="14" height="18"/>
    <rect fill="#1c1710" x="3" y="8" width="18" height="11"/>
    <rect fill="#3a6232" x="8" y="3" width="8" height="22"/>
    <rect fill="#3a6232" x="6" y="6" width="12" height="16"/>
    <rect fill="#3a6232" x="4" y="9" width="16" height="9"/>
    <rect fill="#4a7c3f" x="9" y="7" width="6" height="12"/>
    <rect fill="#4a7c3f" x="6" y="11" width="12" height="5"/>
    <rect fill="#cfc6b0" x="7" y="12" width="2" height="2"/>
    <rect fill="#cfc6b0" x="13" y="9" width="2" height="2"/>
    <rect fill="#cfc6b0" x="10" y="15" width="2" height="2"/>
    <rect fill="#cfc6b0" x="15" y="13" width="2" height="2"/>
    <rect fill="#cfc6b0" x="5" y="14" width="1" height="2"/>
    <rect fill="#cfc6b0" x="17" y="15" width="1" height="2"/>
    <rect fill="#cfc6b0" x="11" y="5" width="2" height="1"/>
    <rect fill="#1c1710" x="8" y="3" width="3" height="5"/>
    <rect fill="#6b1f8c" x="8" y="3" width="2" height="4"/>
    <rect fill="#1c1710" x="4" y="8" width="3" height="5"/>
    <rect fill="#6b1f8c" x="4" y="8" width="2" height="4"/>
    <rect fill="#1c1710" x="15" y="7" width="3" height="5"/>
    <rect fill="#6b1f8c" x="15" y="7" width="2" height="4"/>
    <rect fill="#1c1710" x="17" y="12" width="3" height="5"/>
    <rect fill="#6b1f8c" x="17" y="12" width="2" height="4"/>
    <rect fill="#1c1710" x="6" y="14" width="3" height="5"/>
    <rect fill="#6b1f8c" x="6" y="14" width="2" height="4"/>
    <rect fill="#1c1710" x="11" y="16" width="3" height="5"/>
    <rect fill="#6b1f8c" x="11" y="16" width="2" height="4"/>
  </g>
  <g id="ripe-variant-2">
    <rect fill="#1c1710" x="9" y="22" width="7" height="26"/>
    <rect fill="#1c1710" x="6" y="43" width="12" height="5"/>
    <rect fill="#6b4423" x="10" y="23" width="5" height="24"/>
    <rect fill="#8a5a32" x="10" y="23" width="2" height="22"/>
    <rect fill="#6b4423" x="7" y="44" width="10" height="3"/>
    <rect fill="#1c1710" x="12" y="28" width="1" height="12"/>
    <rect fill="#1c1710" x="13" y="36" width="1" height="8"/>
    <rect fill="#1c1710" x="10" y="33" width="3" height="3"/>
    <rect fill="#6b4423" x="11" y="34" width="1" height="1"/>
    <rect fill="#1c1710" x="7" y="2" width="10" height="24"/>
    <rect fill="#1c1710" x="5" y="5" width="14" height="18"/>
    <rect fill="#1c1710" x="3" y="8" width="18" height="11"/>
    <rect fill="#3a6232" x="8" y="3" width="8" height="22"/>
    <rect fill="#3a6232" x="6" y="6" width="12" height="16"/>
    <rect fill="#3a6232" x="4" y="9" width="16" height="9"/>
    <rect fill="#4a7c3f" x="9" y="7" width="6" height="12"/>
    <rect fill="#4a7c3f" x="6" y="11" width="12" height="5"/>
    <rect fill="#cfc6b0" x="7" y="12" width="2" height="2"/>
    <rect fill="#cfc6b0" x="13" y="9" width="2" height="2"/>
    <rect fill="#cfc6b0" x="10" y="15" width="2" height="2"/>
    <rect fill="#cfc6b0" x="15" y="13" width="2" height="2"/>
    <rect fill="#cfc6b0" x="5" y="14" width="1" height="2"/>
    <rect fill="#cfc6b0" x="17" y="15" width="1" height="2"/>
    <rect fill="#cfc6b0" x="11" y="5" width="2" height="1"/>
    <rect fill="#1c1710" x="9" y="3" width="3" height="3"/>
    <rect fill="#d4a017" x="9" y="3" width="2" height="2"/>
    <rect fill="#1c1710" x="5" y="6" width="3" height="3"/>
    <rect fill="#d4a017" x="5" y="6" width="2" height="2"/>
    <rect fill="#1c1710" x="14" y="5" width="3" height="3"/>
    <rect fill="#d4a017" x="14" y="5" width="2" height="2"/>
    <rect fill="#1c1710" x="7" y="9" width="3" height="3"/>
    <rect fill="#d4a017" x="7" y="9" width="2" height="2"/>
    <rect fill="#1c1710" x="16" y="8" width="3" height="3"/>
    <rect fill="#d4a017" x="16" y="8" width="2" height="2"/>
    <rect fill="#1c1710" x="4" y="12" width="3" height="3"/>
    <rect fill="#d4a017" x="4" y="12" width="2" height="2"/>
    <rect fill="#1c1710" x="12" y="11" width="3" height="3"/>
    <rect fill="#d4a017" x="12" y="11" width="2" height="2"/>
    <rect fill="#1c1710" x="8" y="14" width="3" height="3"/>
    <rect fill="#d4a017" x="8" y="14" width="2" height="2"/>
    <rect fill="#1c1710" x="15" y="15" width="3" height="3"/>
    <rect fill="#d4a017" x="15" y="15" width="2" height="2"/>
    <rect fill="#1c1710" x="10" y="18" width="3" height="3"/>
    <rect fill="#d4a017" x="10" y="18" width="2" height="2"/>
  </g>
  <g id="ripe-heirloom">
    <rect fill="#1c1710" x="9" y="22" width="7" height="26"/>
    <rect fill="#1c1710" x="6" y="43" width="12" height="5"/>
    <rect fill="#6b4423" x="10" y="23" width="5" height="24"/>
    <rect fill="#8a5a32" x="10" y="23" width="2" height="22"/>
    <rect fill="#6b4423" x="7" y="44" width="10" height="3"/>
    <rect fill="#1c1710" x="12" y="28" width="1" height="12"/>
    <rect fill="#1c1710" x="13" y="36" width="1" height="8"/>
    <rect fill="#1c1710" x="10" y="33" width="3" height="3"/>
    <rect fill="#6b4423" x="11" y="34" width="1" height="1"/>
    <rect fill="#1c1710" x="7" y="2" width="10" height="24"/>
    <rect fill="#1c1710" x="5" y="5" width="14" height="18"/>
    <rect fill="#1c1710" x="3" y="8" width="18" height="11"/>
    <rect fill="#3a6232" x="8" y="3" width="8" height="22"/>
    <rect fill="#3a6232" x="6" y="6" width="12" height="16"/>
    <rect fill="#3a6232" x="4" y="9" width="16" height="9"/>
    <rect fill="#4a7c3f" x="9" y="7" width="6" height="12"/>
    <rect fill="#4a7c3f" x="6" y="11" width="12" height="5"/>
    <rect fill="#cfc6b0" x="7" y="12" width="2" height="2"/>
    <rect fill="#cfc6b0" x="13" y="9" width="2" height="2"/>
    <rect fill="#cfc6b0" x="10" y="15" width="2" height="2"/>
    <rect fill="#cfc6b0" x="15" y="13" width="2" height="2"/>
    <rect fill="#cfc6b0" x="5" y="14" width="1" height="2"/>
    <rect fill="#cfc6b0" x="17" y="15" width="1" height="2"/>
    <rect fill="#cfc6b0" x="11" y="5" width="2" height="1"/>
    <rect fill="#1c1710" x="9" y="4" width="4" height="4"/>
    <rect fill="#cfc6b0" x="9" y="4" width="3" height="3"/>
    <rect fill="#6b4423" x="10" y="5" width="1" height="1"/>
    <rect fill="#1c1710" x="5" y="10" width="4" height="4"/>
    <rect fill="#cfc6b0" x="5" y="10" width="3" height="3"/>
    <rect fill="#6b4423" x="6" y="11" width="1" height="1"/>
    <rect fill="#1c1710" x="14" y="9" width="4" height="4"/>
    <rect fill="#cfc6b0" x="14" y="9" width="3" height="3"/>
    <rect fill="#6b4423" x="15" y="10" width="1" height="1"/>
    <rect fill="#1c1710" x="11" y="13" width="4" height="4"/>
    <rect fill="#cfc6b0" x="11" y="13" width="3" height="3"/>
    <rect fill="#6b4423" x="12" y="14" width="1" height="1"/>
    <rect fill="#1c1710" x="7" y="17" width="4" height="4"/>
    <rect fill="#cfc6b0" x="7" y="17" width="3" height="3"/>
    <rect fill="#6b4423" x="8" y="18" width="1" height="1"/>
  </g>
</svg>
