<svg xmlns="http://www.w3.org/2000/svg" viewBox="0 0 24 24" fill="none" shape-rendering="crispEdges">
  <rect fill="#1c1710" x="2" y="20" width="20" height="4"/>
  <rect fill="#6b4423" x="3" y="21" width="18" height="2"/>
  <rect fill="#1c1710" x="5" y="1" width="14" height="20"/>
  <rect fill="#2c322c" x="6" y="2" width="12" height="18"/>
  <rect fill="#4c4844" x="6" y="2" width="12" height="4"/>
  <rect fill="#8a9198" x="7" y="3" width="10" height="2"/>
  <rect fill="#1c1710" x="7" y="7" width="4" height="7"/>
  <rect fill="#8a9198" x="8" y="8" width="2" height="5"/>
  <rect fill="#1c1710" x="13" y="7" width="4" height="7"/>
  <rect fill="#8a9198" x="14" y="8" width="2" height="5"/>
  <rect fill="#1c1710" x="0" y="9" width="6" height="6"/>
  <rect fill="#8a9198" x="0" y="10" width="5" height="4"/>
  <rect fill="#1c1710" x="18" y="9" width="6" height="6"/>
  <rect fill="#8a9198" x="19" y="10" width="5" height="4"/>
  <rect fill="#1c1710" x="10" y="18" width="4" height="6"/>
  <rect fill="#8a9198" x="11" y="19" width="2" height="5"/>
</svg>
