<svg xmlns="http://www.w3.org/2000/svg" viewBox="0 0 24 24" fill="none" shape-rendering="crispEdges">
  <g id="off">
    <rect fill="#1c1710" x="2" y="20" width="20" height="4"/>
    <rect fill="#6b4423" x="3" y="21" width="18" height="2"/>
    <rect fill="#1c1710" x="5" y="12" width="14" height="10"/>
    <rect fill="#2c322c" x="6" y="13" width="12" height="8"/>
    <rect fill="#4c4844" x="6" y="13" width="12" height="3"/>
    <rect fill="#1c1710" x="6" y="4" width="12" height="9"/>
    <rect fill="#2c322c" x="7" y="5" width="10" height="7"/>
    <rect fill="#4c4844" x="7" y="5" width="10" height="2"/>
    <rect fill="#c43c3c" x="10" y="8" width="4" height="3"/>
    <rect fill="#1c1710" x="10" y="0" width="4" height="5"/>
    <rect fill="#8a9198" x="11" y="0" width="2" height="4"/>
  </g>
  <g id="on">
    <rect fill="#1c1710" x="2" y="20" width="20" height="4"/>
    <rect fill="#6b4423" x="3" y="21" width="18" height="2"/>
    <rect fill="#1c1710" x="5" y="12" width="14" height="10"/>
    <rect fill="#2c322c" x="6" y="13" width="12" height="8"/>
    <rect fill="#4c4844" x="6" y="13" width="12" height="3"/>
    <rect fill="#1c1710" x="6" y="4" width="12" height="9"/>
    <rect fill="#d4a017" x="7" y="5" width="10" height="7"/>
    <rect fill="#8a9198" x="7" y="5" width="10" height="2"/>
    <rect fill="#8a9198" x="10" y="8" width="4" height="3"/>
    <rect fill="#1c1710" x="10" y="0" width="4" height="5"/>
    <rect fill="#8a9198" x="11" y="0" width="2" height="4"/>
  </g>
</svg>
