<svg xmlns="http://www.w3.org/2000/svg" viewBox="0 0 24 24" fill="none" shape-rendering="crispEdges">
  <rect fill="#1c1710" x="11" y="1" width="2" height="2"/>
  <rect fill="#1c1710" x="10" y="3" width="4" height="2"/>
  <rect fill="#1c1710" x="9" y="5" width="6" height="2"/>
  <rect fill="#1c1710" x="8" y="7" width="8" height="2"/>
  <rect fill="#1c1710" x="7" y="9" width="10" height="2"/>
  <rect fill="#1c1710" x="10" y="11" width="4" height="8"/>
  <rect fill="#8a9198" x="11" y="2" width="2" height="2"/>
  <rect fill="#8a9198" x="10" y="4" width="4" height="2"/>
  <rect fill="#8a9198" x="9" y="6" width="6" height="2"/>
  <rect fill="#8a9198" x="8" y="8" width="8" height="2"/>
  <rect fill="#8a9198" x="11" y="10" width="2" height="8"/>
  <rect fill="#2c322c" x="11" y="2" width="2" height="1"/>
  <rect fill="#1c1710" x="1" y="18" width="22" height="6"/>
  <rect fill="#4c4844" x="2" y="19" width="20" height="4"/>
  <rect fill="#8a9198" x="2" y="19" width="20" height="2"/>
  <rect fill="#2c322c" x="2" y="22" width="20" height="1"/>
  <rect fill="#1c1710" x="8" y="20" width="8" height="3"/>
  <rect fill="#2c322c" x="9" y="21" width="6" height="2"/>
</svg>
