<svg xmlns="http://www.w3.org/2000/svg" viewBox="0 0 24 24" fill="none" shape-rendering="crispEdges">
  <rect fill="#1c1710" x="3" y="8" width="18" height="15"/>
  <rect fill="#1c1710" x="2" y="10" width="20" height="11"/>
  <rect fill="#cfc6b0" x="4" y="9" width="16" height="13"/>
  <rect fill="#cfc6b0" x="3" y="11" width="18" height="9"/>
  <rect fill="#1c1710" x="6" y="11" width="12" height="9"/>
  <rect fill="#1c1710" x="5" y="12" width="14" height="7"/>
  <rect fill="#6b4423" x="7" y="12" width="10" height="7"/>
  <rect fill="#3d7ea6" x="7" y="13" width="10" height="6"/>
  <rect fill="#3d7ea6" x="8" y="12" width="8" height="7"/>
  <rect fill="#1c1710" x="4" y="2" width="3" height="9"/>
  <rect fill="#8a5a32" x="5" y="3" width="2" height="7"/>
  <rect fill="#1c1710" x="17" y="2" width="3" height="9"/>
  <rect fill="#8a5a32" x="18" y="3" width="2" height="7"/>
  <rect fill="#1c1710" x="3" y="0" width="18" height="4"/>
  <rect fill="#6b4423" x="4" y="1" width="16" height="2"/>
  <rect fill="#8a5a32" x="4" y="1" width="16" height="1"/>
  <rect fill="#1c1710" x="10" y="3" width="2" height="4"/>
  <rect fill="#6b4423" x="10" y="4" width="2" height="2"/>
  <rect fill="#1c1710" x="7" y="6" width="10" height="4"/>
  <rect fill="#8a5a32" x="8" y="7" width="8" height="2"/>
  <rect fill="#3d7ea6" x="9" y="8" width="6" height="1"/>
</svg>
