<svg xmlns="http://www.w3.org/2000/svg" viewBox="0 0 24 12" fill="none" shape-rendering="crispEdges">
  <rect fill="#1c1710" x="2" y="1" width="4" height="3"/>
  <rect fill="#1c1710" x="2" y="8" width="4" height="3"/>
  <rect fill="#4c4844" x="3" y="2" width="2" height="1"/>
  <rect fill="#4c4844" x="3" y="9" width="2" height="1"/>
  <rect fill="#8a9198" x="3" y="2" width="1" height="1"/>
  <rect fill="#8a9198" x="3" y="9" width="1" height="1"/>
  <rect fill="#1c1710" x="12" y="1" width="4" height="3"/>
  <rect fill="#1c1710" x="12" y="8" width="4" height="3"/>
  <rect fill="#4c4844" x="13" y="2" width="2" height="1"/>
  <rect fill="#4c4844" x="13" y="9" width="2" height="1"/>
  <rect fill="#8a9198" x="13" y="2" width="1" height="1"/>
  <rect fill="#8a9198" x="13" y="9" width="1" height="1"/>
  <rect fill="#2c322c" x="1" y="5" width="19" height="2"/>
  <rect fill="#1c1710" x="1" y="3" width="18" height="6"/>
  <rect fill="#8a9198" x="2" y="4" width="16" height="4"/>
  <rect fill="#4c4844" x="4" y="4" width="1" height="4"/>
  <rect fill="#4c4844" x="8" y="4" width="1" height="4"/>
  <rect fill="#4c4844" x="12" y="4" width="1" height="4"/>
  <rect fill="#4c4844" x="16" y="4" width="1" height="4"/>
  <rect fill="#6bc04a" x="3" y="4" width="14" height="1"/>
  <rect fill="#1c1710" x="18" y="5" width="6" height="2"/>
  <rect fill="#4c4844" x="18" y="5" width="5" height="2"/>
  <rect fill="#8a9198" x="22" y="5" width="1" height="2"/>
</svg>
