<svg xmlns="http://www.w3.org/2000/svg" viewBox="0 0 24 24" fill="none" shape-rendering="crispEdges">
  <g id="idle">
    <rect fill="#1c1710" x="0" y="0" width="24" height="24"/>
    <rect fill="#cfc6b0" x="1" y="1" width="22" height="22"/>
    <rect fill="#8a5a32" x="1" y="1" width="22" height="3"/>
    <rect fill="#6b4423" x="2" y="2" width="2" height="1"/>
    <rect fill="#6b4423" x="7" y="2" width="2" height="1"/>
    <rect fill="#6b4423" x="12" y="2" width="2" height="1"/>
    <rect fill="#6b4423" x="17" y="2" width="2" height="1"/>
    <rect fill="#8a5a32" x="1" y="21" width="22" height="2"/>
    <rect fill="#1c1710" x="5" y="6" width="4" height="3"/>
    <rect fill="#1c1710" x="7" y="8" width="4" height="3"/>
    <rect fill="#1c1710" x="9" y="10" width="6" height="3"/>
    <rect fill="#1c1710" x="13" y="12" width="4" height="3"/>
    <rect fill="#1c1710" x="15" y="14" width="4" height="3"/>
    <rect fill="#1c1710" x="15" y="6" width="4" height="3"/>
    <rect fill="#1c1710" x="13" y="8" width="4" height="3"/>
    <rect fill="#1c1710" x="5" y="14" width="4" height="3"/>
    <rect fill="#1c1710" x="7" y="12" width="4" height="3"/>
  </g>
  <g id="hover">
    <rect fill="#1c1710" x="0" y="0" width="24" height="24"/>
    <rect fill="#6b4423" x="1" y="1" width="22" height="22"/>
    <rect fill="#8a5a32" x="1" y="1" width="22" height="3"/>
    <rect fill="#cfc6b0" x="2" y="2" width="2" height="1"/>
    <rect fill="#cfc6b0" x="7" y="2" width="2" height="1"/>
    <rect fill="#cfc6b0" x="12" y="2" width="2" height="1"/>
    <rect fill="#cfc6b0" x="17" y="2" width="2" height="1"/>
    <rect fill="#8a5a32" x="1" y="21" width="22" height="2"/>
    <rect fill="#cfc6b0" x="5" y="6" width="4" height="3"/>
    <rect fill="#cfc6b0" x="7" y="8" width="4" height="3"/>
    <rect fill="#cfc6b0" x="9" y="10" width="6" height="3"/>
    <rect fill="#cfc6b0" x="13" y="12" width="4" height="3"/>
    <rect fill="#cfc6b0" x="15" y="14" width="4" height="3"/>
    <rect fill="#cfc6b0" x="15" y="6" width="4" height="3"/>
    <rect fill="#cfc6b0" x="13" y="8" width="4" height="3"/>
    <rect fill="#cfc6b0" x="5" y="14" width="4" height="3"/>
    <rect fill="#cfc6b0" x="7" y="12" width="4" height="3"/>
  </g>
  <g id="selected">
    <rect fill="#1c1710" x="0" y="0" width="24" height="24"/>
    <rect fill="#cfc6b0" x="1" y="1" width="22" height="2"/>
    <rect fill="#8b3a2a" x="2" y="2" width="2" height="1"/>
    <rect fill="#8b3a2a" x="7" y="2" width="2" height="1"/>
    <rect fill="#8b3a2a" x="12" y="2" width="2" height="1"/>
    <rect fill="#8b3a2a" x="17" y="2" width="2" height="1"/>
    <rect fill="#cfc6b0" x="1" y="21" width="22" height="2"/>
    <rect fill="#cfc6b0" x="5" y="6" width="4" height="3"/>
    <rect fill="#cfc6b0" x="7" y="8" width="4" height="3"/>
    <rect fill="#cfc6b0" x="9" y="10" width="6" height="3"/>
    <rect fill="#cfc6b0" x="13" y="12" width="4" height="3"/>
    <rect fill="#cfc6b0" x="15" y="14" width="4" height="3"/>
    <rect fill="#cfc6b0" x="15" y="6" width="4" height="3"/>
    <rect fill="#cfc6b0" x="13" y="8" width="4" height="3"/>
    <rect fill="#cfc6b0" x="5" y="14" width="4" height="3"/>
    <rect fill="#cfc6b0" x="7" y="12" width="4" height="3"/>
  </g>
  <g id="disabled">
    <rect fill="#6b4423" x="0" y="0" width="24" height="24"/>
    <rect fill="#8a5a32" x="1" y="1" width="22" height="22"/>
    <rect fill="#6b4423" x="1" y="1" width="22" height="3"/>
    <rect fill="#8a5a32" x="2" y="2" width="2" height="1"/>
    <rect fill="#8a5a32" x="7" y="2" width="2" height="1"/>
    <rect fill="#8a5a32" x="12" y="2" width="2" height="1"/>
    <rect fill="#8a5a32" x="17" y="2" width="2" height="1"/>
    <rect fill="#6b4423" x="1" y="21" width="22" height="2"/>
    <rect fill="#6b4423" x="5" y="6" width="4" height="3"/>
    <rect fill="#6b4423" x="7" y="8" width="4" height="3"/>
    <rect fill="#6b4423" x="9" y="10" width="6" height="3"/>
    <rect fill="#6b4423" x="13" y="12" width="4" height="3"/>
    <rect fill="#6b4423" x="15" y="14" width="4" height="3"/>
    <rect fill="#6b4423" x="15" y="6" width="4" height="3"/>
    <rect fill="#6b4423" x="13" y="8" width="4" height="3"/>
    <rect fill="#6b4423" x="5" y="14" width="4" height="3"/>
    <rect fill="#6b4423" x="7" y="12" width="4" height="3"/>
  </g>
</svg>
