<svg xmlns="http://www.w3.org/2000/svg" viewBox="0 0 240 120" fill="none" shape-rendering="crispEdges">
  <rect fill="#1c1710" x="22" y="38" width="10" height="72"/>
  <rect fill="#8a5a32" x="24" y="40" width="6" height="68"/>
  <rect fill="#6b4423" x="24" y="40" width="6" height="4"/>
  <rect fill="#1c1710" x="208" y="38" width="10" height="72"/>
  <rect fill="#8a5a32" x="210" y="40" width="6" height="68"/>
  <rect fill="#6b4423" x="210" y="40" width="6" height="4"/>
  <rect fill="#1c1710" x="32" y="40" width="176" height="40"/>
  <rect fill="#8a5a32" x="34" y="42" width="172" height="36"/>
  <rect fill="#6b4423" x="34" y="50" width="172" height="2"/>
  <rect fill="#6b4423" x="34" y="58" width="172" height="2"/>
  <rect fill="#6b4423" x="34" y="66" width="172" height="2"/>
  <rect fill="#1c1710" x="10" y="4" width="220" height="38"/>
  <rect fill="#8b3a2a" x="12" y="6" width="216" height="34"/>
  <rect fill="#6b4423" x="12" y="10" width="216" height="2"/>
  <rect fill="#6b4423" x="12" y="18" width="216" height="2"/>
  <rect fill="#6b4423" x="12" y="26" width="216" height="2"/>
  <rect fill="#6b4423" x="12" y="32" width="216" height="8"/>
  <rect fill="#8a5a32" x="20" y="14" width="10" height="4"/>
  <rect fill="#8a5a32" x="44" y="14" width="10" height="4"/>
  <rect fill="#8a5a32" x="68" y="14" width="10" height="4"/>
  <rect fill="#8a5a32" x="92" y="14" width="10" height="4"/>
  <rect fill="#8a5a32" x="116" y="14" width="10" height="4"/>
  <rect fill="#8a5a32" x="140" y="14" width="10" height="4"/>
  <rect fill="#8a5a32" x="164" y="14" width="10" height="4"/>
  <rect fill="#8a5a32" x="188" y="14" width="10" height="4"/>
  <rect fill="#8a5a32" x="212" y="14" width="10" height="4"/>
  <rect fill="#c43c3c" x="70" y="38" width="10" height="4"/>
  <rect fill="#c43c3c" x="66" y="40" width="4" height="3"/>
  <rect fill="#c43c3c" x="80" y="40" width="4" height="3"/>
  <rect fill="#1c1710" x="64" y="42" width="22" height="18"/>
  <rect fill="#6b4423" x="66" y="44" width="18" height="5"/>
  <rect fill="#6b4423" x="66" y="44" width="5" height="14"/>
  <rect fill="#6b4423" x="79" y="44" width="5" height="14"/>
  <rect fill="#cfc6b0" x="66" y="49" width="18" height="9"/>
  <rect fill="#1c1710" x="68" y="51" width="4" height="3"/>
  <rect fill="#1c1710" x="76" y="51" width="4" height="3"/>
  <rect fill="#1c1710" x="58" y="58" width="34" height="28"/>
  <rect fill="#8b3a2a" x="60" y="60" width="30" height="24"/>
  <rect fill="#6b4423" x="60" y="70" width="30" height="4"/>
  <rect fill="#1c1710" x="48" y="60" width="12" height="18"/>
  <rect fill="#cfc6b0" x="50" y="62" width="8" height="14"/>
  <rect fill="#1c1710" x="90" y="64" width="20" height="12"/>
  <rect fill="#cfc6b0" x="92" y="66" width="16" height="8"/>
  <rect fill="#1c1710" x="34" y="76" width="172" height="32"/>
  <rect fill="#8a5a32" x="36" y="78" width="168" height="28"/>
  <rect fill="#6b4423" x="36" y="78" width="168" height="8"/>
  <rect fill="#8a5a32" x="36" y="78" width="168" height="3"/>
  <rect fill="#6b4423" x="36" y="98" width="168" height="6"/>
  <g id="till">
    <rect fill="#1c1710" x="154" y="80" width="34" height="18"/>
    <rect fill="#6b4423" x="156" y="82" width="30" height="14"/>
    <rect fill="#cfc6b0" x="158" y="84" width="26" height="6"/>
    <rect fill="#6b4423" x="160" y="86" width="22" height="3"/>
    <rect fill="#8a5a32" x="156" y="92" width="30" height="4"/>
  </g>
  <rect fill="#6b4423" x="20" y="110" width="200" height="4"/>
</svg>
